<?xml version="1.0" standalone="no"?><!DOCTYPE svg PUBLIC "-//W3C//DTD SVG 1.1//EN" "http://www.w3.org/Graphics/SVG/1.1/DTD/svg11.dtd"><svg t="1515400358820" class="icon" style="" viewBox="0 0 1024 1024" version="1.1" xmlns="http://www.w3.org/2000/svg" p-id="870" xmlns:xlink="http://www.w3.org/1999/xlink" width="32" height="32"><defs><style type="text/css"></style></defs><path d="M417.075 516.443c0 52.608 42.648 95.256 95.256 95.256s95.256-42.648 95.256-95.256-42.648-95.256-95.256-95.256c-52.609 0-95.256 42.648-95.256 95.256z m95.256-127.185c23.415 0 45.233 6.386 63.859 17.029l160.179-274.593c-65.987-38.315-142.086-60.666-224.038-60.666s-158.583 22.351-224.57 60.666l158.583 275.657c19.157-11.175 41.507-18.093 65.987-18.093zM385.145 516.443H66.915c0 165.501 93.127 304.926 227.231 381.557l155.39-270.868c-38.315-21.818-64.391-63.327-64.391-110.689z m254.371 0c0 47.362-26.076 88.87-64.923 110.689L729.983 898c134.104-76.631 227.231-216.056 227.231-381.557H639.516z" p-id="871" fill="#FfEe99"></path></svg>